<svg width="34" height="34" viewBox="0 0 34 34" fill="none" xmlns="http://www.w3.org/2000/svg">
<path d="M1 11.2289L10.472 1H17.16H23.848L33 11.2289L17.064 33L1 11.2289Z" fill="#EFC58B"/>
<path d="M10.472 1L1 11.2289M10.472 1L8.68 11.6436M10.472 1H17.16M1 11.2289L17.064 33M1 11.2289L8.68 11.6436M17.064 33L33 11.2289M17.064 33L8.68 11.6436M17.064 33L25.704 11.6436M33 11.2289L23.848 1M33 11.2289L25.704 11.6436M23.848 1L25.704 11.6436M23.848 1H17.16M8.68 11.6436L17.16 1M8.68 11.6436H25.704M25.704 11.6436L17.16 1" stroke="white" stroke-linejoin="round"/>
</svg>
