<svg width="18" height="18" viewBox="0 0 18 18" fill="none" xmlns="http://www.w3.org/2000/svg">
<path d="M1 6.11447L5.736 1H9.08H12.424L17 6.11447L9.032 17L1 6.11447Z" fill="#EFC58B"/>
<path d="M5.736 1L1 6.11447M5.736 1L4.84 6.32181M5.736 1H9.08M1 6.11447L9.032 17M1 6.11447L4.84 6.32181M9.032 17L17 6.11447M9.032 17L4.84 6.32181M9.032 17L13.352 6.32181M17 6.11447L12.424 1M17 6.11447L13.352 6.32181M12.424 1L13.352 6.32181M12.424 1H9.08M4.84 6.32181L9.08 1M4.84 6.32181H13.352M13.352 6.32181L9.08 1" stroke="white" stroke-width="0.5" stroke-linejoin="round"/>
</svg>
