<svg xmlns="http://www.w3.org/2000/svg" width="60" height="60" fill="none"><path stroke="#fff" stroke-width="1.8" d="M30 .9C18.316.9 8.81 10.406 8.81 22.09c0 3.052.625 5.957 1.851 8.642C16.125 42.69 26.636 55.364 29.75 58.985a.33.33 0 0 0 .499 0c3.112-3.62 13.624-16.294 19.09-28.253 1.227-2.685 1.85-5.59 1.85-8.642L30 .9Zm0 0c11.681 0 21.188 9.506 21.19 21.19L30 .9Zm0 33.563c-6.825 0-12.375-5.55-12.375-12.374 0-6.824 5.55-12.375 12.374-12.375 6.824 0 12.374 5.55 12.374 12.375L30 34.463Zm0 0c6.823 0 12.374-5.55 12.373-12.374L30 34.463Z"/></svg>